<?xml version="1.0" encoding="UTF-8"?>
<svg width="512px" height="512px" viewBox="0 0 512 512" version="1.1" xmlns="http://www.w3.org/2000/svg" xmlns:xlink="http://www.w3.org/1999/xlink">
    <!-- Generator: Sketch 55.2 (78181) - https://sketchapp.com -->
    <title>icon</title>
    <desc>Created with Sketch.</desc>
    <defs>
        <circle id="path-1" cx="256" cy="256" r="238"></circle>
        <filter x="-2.5%" y="-2.1%" width="105.0%" height="105.0%" filterUnits="objectBoundingBox" id="filter-2">
            <feMorphology radius="0.96484375" operator="dilate" in="SourceAlpha" result="shadowSpreadOuter1"></feMorphology>
            <feOffset dx="0" dy="2" in="shadowSpreadOuter1" result="shadowOffsetOuter1"></feOffset>
            <feGaussianBlur stdDeviation="3" in="shadowOffsetOuter1" result="shadowBlurOuter1"></feGaussianBlur>
            <feComposite in="shadowBlurOuter1" in2="SourceAlpha" operator="out" result="shadowBlurOuter1"></feComposite>
            <feColorMatrix values="0 0 0 0 0   0 0 0 0 0   0 0 0 0 0  0 0 0 0.725934222 0" type="matrix" in="shadowBlurOuter1"></feColorMatrix>
        </filter>
        <path d="M384,181.818182 C384,178.545455 383.393939,174.272727 382.181818,169 C380.969697,163.727273 379.69697,159.575758 378.363636,156.545455 C375.818182,150.484848 368.424242,144.060606 356.181818,137.272727 C344.787879,131.090909 333.515152,128 322.363636,128 C319.090909,128 315.909091,128.212121 312.818182,128.636364 C309.727273,129.060606 306.242424,129.818182 302.363636,130.909091 C298.484848,132 295.606061,132.878788 293.727273,133.545455 C291.848485,134.212121 288.484848,135.454545 283.636364,137.272727 C278.787879,139.090909 275.818182,140.181818 274.727273,140.545455 C262.848485,144.787879 252.242424,149.818182 242.909091,155.636364 C227.393939,165.212121 211.363636,178.272727 194.818182,194.818182 C178.272727,211.363636 165.212121,227.393939 155.636364,242.909091 C149.818182,252.242424 144.787879,262.848485 140.545455,274.727273 C140.181818,275.818182 139.090909,278.787879 137.272727,283.636364 C135.454545,288.484848 134.212121,291.848485 133.545455,293.727273 C132.878788,295.606061 132,298.484848 130.909091,302.363636 C129.818182,306.242424 129.060606,309.727273 128.636364,312.818182 C128.212121,315.909091 128,319.090909 128,322.363636 C128,333.515152 131.090909,344.787879 137.272727,356.181818 C144.060606,368.424242 150.484848,375.818182 156.545455,378.363636 C159.575758,379.69697 163.727273,380.969697 169,382.181818 C174.272727,383.393939 178.545455,384 181.818182,384 C183.515152,384 184.787879,383.818182 185.636364,383.454545 C187.818182,382.727273 191.030303,378.121212 195.272727,369.636364 C196.606061,367.333333 198.424242,364.060606 200.727273,359.818182 C203.030303,355.575758 205.151515,351.727273 207.090909,348.272727 C209.030303,344.818182 210.909091,341.575758 212.727273,338.545455 C213.090909,338.060606 214.151515,336.545455 215.909091,334 C217.666667,331.454545 218.969697,329.30303 219.818182,327.545455 C220.666667,325.787879 221.090909,324.060606 221.090909,322.363636 C221.090909,319.939394 219.363636,316.909091 215.909091,313.272727 C212.454545,309.636364 208.69697,306.30303 204.636364,303.272727 C200.575758,300.242424 196.818182,297.030303 193.363636,293.636364 C189.909091,290.242424 188.181818,287.454545 188.181818,285.272727 C188.181818,284.181818 188.484848,282.818182 189.090909,281.181818 C189.69697,279.545455 190.212121,278.30303 190.636364,277.454545 C191.060606,276.606061 191.909091,275.151515 193.181818,273.090909 C194.454545,271.030303 195.151515,269.878788 195.272727,269.636364 C204.484848,253.030303 215.030303,238.787879 226.909091,226.909091 C238.787879,215.030303 253.030303,204.484848 269.636364,195.272727 C269.878788,195.151515 271.030303,194.454545 273.090909,193.181818 C275.151515,191.909091 276.606061,191.060606 277.454545,190.636364 C278.30303,190.212121 279.545455,189.69697 281.181818,189.090909 C282.818182,188.484848 284.181818,188.181818 285.272727,188.181818 C287.454545,188.181818 290.242424,189.909091 293.636364,193.363636 C297.030303,196.818182 300.242424,200.575758 303.272727,204.636364 C306.30303,208.69697 309.636364,212.454545 313.272727,215.909091 C316.909091,219.363636 319.939394,221.090909 322.363636,221.090909 C324.060606,221.090909 325.787879,220.666667 327.545455,219.818182 C329.30303,218.969697 331.454545,217.666667 334,215.909091 C336.545455,214.151515 338.060606,213.090909 338.545455,212.727273 C341.575758,210.909091 344.818182,209.030303 348.272727,207.090909 C351.727273,205.151515 355.575758,203.030303 359.818182,200.727273 C364.060606,198.424242 367.333333,196.606061 369.636364,195.272727 C378.121212,191.030303 382.727273,187.818182 383.454545,185.636364 C383.818182,184.787879 384,183.515152 384,181.818182 Z" id="path-3"></path>
        <filter x="-6.4%" y="-4.5%" width="109.0%" height="109.0%" filterUnits="objectBoundingBox" id="filter-4">
            <feOffset dx="-5" dy="0" in="SourceAlpha" result="shadowOffsetOuter1"></feOffset>
            <feGaussianBlur stdDeviation="3" in="shadowOffsetOuter1" result="shadowBlurOuter1"></feGaussianBlur>
            <feColorMatrix values="0 0 0 0 0   0 0 0 0 0   0 0 0 0 0  0 0 0 0.653381774 0" type="matrix" in="shadowBlurOuter1"></feColorMatrix>
        </filter>
    </defs>
    <g id="icon" stroke="none" stroke-width="1" fill="none" fill-rule="evenodd">
        <g id="Oval">
            <use fill="black" fill-opacity="1" filter="url(#filter-2)" xlink:href="#path-1"></use>
            <use stroke="#000000" stroke-width="0.9296875" fill="#434C5D" fill-rule="evenodd" xlink:href="#path-1"></use>
        </g>
        <g id="path3017" fill-rule="nonzero" transform="translate(256.000000, 256.000000) rotate(-90.000000) translate(-256.000000, -256.000000) ">
            <use fill="black" fill-opacity="1" filter="url(#filter-4)" xlink:href="#path-3"></use>
            <use fill="#A3BE8C" xlink:href="#path-3"></use>
        </g>
    </g>
</svg>