<?xml version="1.0" encoding="UTF-8"?>
<svg width="512px" height="512px" viewBox="0 0 512 512" version="1.1" xmlns="http://www.w3.org/2000/svg" xmlns:xlink="http://www.w3.org/1999/xlink">
    <!-- Generator: Sketch 55.2 (78181) - https://sketchapp.com -->
    <title>icon</title>
    <desc>Created with Sketch.</desc>
    <defs>
        <circle id="path-1" cx="256" cy="256" r="231"></circle>
        <filter x="-2.5%" y="-2.1%" width="105.0%" height="105.0%" filterUnits="objectBoundingBox" id="filter-2">
            <feMorphology radius="0.5" operator="dilate" in="SourceAlpha" result="shadowSpreadOuter1"></feMorphology>
            <feOffset dx="0" dy="2" in="shadowSpreadOuter1" result="shadowOffsetOuter1"></feOffset>
            <feGaussianBlur stdDeviation="3" in="shadowOffsetOuter1" result="shadowBlurOuter1"></feGaussianBlur>
            <feComposite in="shadowBlurOuter1" in2="SourceAlpha" operator="out" result="shadowBlurOuter1"></feComposite>
            <feColorMatrix values="0 0 0 0 0   0 0 0 0 0   0 0 0 0 0  0 0 0 0.725934222 0" type="matrix" in="shadowBlurOuter1"></feColorMatrix>
        </filter>
        <path d="M367,191.670455 C367,188.832386 366.474432,185.127131 365.423295,180.554687 C364.372159,175.982244 363.268466,172.382102 362.112216,169.754261 C359.90483,164.49858 353.492898,158.927557 342.87642,153.041193 C332.995739,147.680398 323.22017,145 313.549716,145 C310.711648,145 307.952415,145.183949 305.272017,145.551847 C302.591619,145.919744 299.569602,146.576705 296.205966,147.522727 C292.84233,148.46875 290.345881,149.230824 288.716619,149.808949 C287.087358,150.387074 284.170455,151.464489 279.965909,153.041193 C275.761364,154.617898 273.18608,155.56392 272.240057,155.879261 C261.93892,159.558239 252.741477,163.920455 244.647727,168.965909 C231.193182,177.269886 217.291903,188.595881 202.943892,202.943892 C188.595881,217.291903 177.269886,231.193182 168.965909,244.647727 C163.920455,252.741477 159.558239,261.93892 155.879261,272.240057 C155.56392,273.18608 154.617898,275.761364 153.041193,279.965909 C151.464489,284.170455 150.387074,287.087358 149.808949,288.716619 C149.230824,290.345881 148.46875,292.84233 147.522727,296.205966 C146.576705,299.569602 145.919744,302.591619 145.551847,305.272017 C145.183949,307.952415 145,310.711648 145,313.549716 C145,323.22017 147.680398,332.995739 153.041193,342.87642 C158.927557,353.492898 164.49858,359.90483 169.754261,362.112216 C172.382102,363.268466 175.982244,364.372159 180.554687,365.423295 C185.127131,366.474432 188.832386,367 191.670455,367 C193.142045,367 194.245739,366.84233 194.981534,366.526989 C196.87358,365.896307 199.659091,361.901989 203.338068,354.544034 C204.494318,352.546875 206.071023,349.708807 208.068182,346.02983 C210.065341,342.350852 211.90483,339.013494 213.586648,336.017756 C215.268466,333.022017 216.897727,330.210227 218.474432,327.582386 C218.789773,327.161932 219.709517,325.848011 221.233665,323.640625 C222.757812,321.433239 223.887784,319.567472 224.62358,318.043324 C225.359375,316.519176 225.727273,315.021307 225.727273,313.549716 C225.727273,311.447443 224.229403,308.819602 221.233665,305.666193 C218.237926,302.512784 214.979403,299.622159 211.458097,296.994318 C207.93679,294.366477 204.678267,291.580966 201.682528,288.637784 C198.68679,285.694602 197.18892,283.276989 197.18892,281.384943 C197.18892,280.43892 197.451705,279.256392 197.977273,277.837358 C198.502841,276.418324 198.949574,275.340909 199.317472,274.605114 C199.685369,273.869318 200.421165,272.607955 201.524858,270.821023 C202.628551,269.034091 203.232955,268.035511 203.338068,267.825284 C211.326705,253.424716 220.471591,241.073864 230.772727,230.772727 C241.073864,220.471591 253.424716,211.326705 267.825284,203.338068 C268.035511,203.232955 269.034091,202.628551 270.821023,201.524858 C272.607955,200.421165 273.869318,199.685369 274.605114,199.317472 C275.340909,198.949574 276.418324,198.502841 277.837358,197.977273 C279.256392,197.451705 280.43892,197.18892 281.384943,197.18892 C283.276989,197.18892 285.694602,198.68679 288.637784,201.682528 C291.580966,204.678267 294.366477,207.93679 296.994318,211.458097 C299.622159,214.979403 302.512784,218.237926 305.666193,221.233665 C308.819602,224.229403 311.447443,225.727273 313.549716,225.727273 C315.021307,225.727273 316.519176,225.359375 318.043324,224.62358 C319.567472,223.887784 321.433239,222.757812 323.640625,221.233665 C325.848011,219.709517 327.161932,218.789773 327.582386,218.474432 C330.210227,216.897727 333.022017,215.268466 336.017756,213.586648 C339.013494,211.90483 342.350852,210.065341 346.02983,208.068182 C349.708807,206.071023 352.546875,204.494318 354.544034,203.338068 C361.901989,199.659091 365.896307,196.87358 366.526989,194.981534 C366.84233,194.245739 367,193.142045 367,191.670455 Z" id="path-3"></path>
        <filter x="-7.4%" y="-5.2%" width="110.4%" height="110.4%" filterUnits="objectBoundingBox" id="filter-4">
            <feOffset dx="-5" dy="0" in="SourceAlpha" result="shadowOffsetOuter1"></feOffset>
            <feGaussianBlur stdDeviation="3" in="shadowOffsetOuter1" result="shadowBlurOuter1"></feGaussianBlur>
            <feColorMatrix values="0 0 0 0 0   0 0 0 0 0   0 0 0 0 0  0 0 0 0.653381774 0" type="matrix" in="shadowBlurOuter1"></feColorMatrix>
        </filter>
    </defs>
    <g id="icon" stroke="none" stroke-width="1" fill="none" fill-rule="evenodd">
        <g id="Oval">
            <use fill="black" fill-opacity="1" filter="url(#filter-2)" xlink:href="#path-1"></use>
            <circle stroke-opacity="0.502185315" stroke="#D8DEE9" stroke-width="20" stroke-linejoin="square" fill="#2E3440" fill-rule="evenodd" cx="256" cy="256" r="221"></circle>
        </g>
        <g id="path3017" fill-rule="nonzero" transform="translate(256.000000, 256.000000) rotate(-90.000000) translate(-256.000000, -256.000000) ">
            <use fill="black" fill-opacity="1" filter="url(#filter-4)" xlink:href="#path-3"></use>
            <use fill="#A3BE8C" xlink:href="#path-3"></use>
        </g>
    </g>
</svg>